<?xml version="1.0" encoding="utf-8"?>
<!-- Generator: Adobe Illustrator 19.0.0, SVG Export Plug-In . SVG Version: 6.00 Build 0)  -->
<svg version="1.1" id="Layer_1" xmlns="http://www.w3.org/2000/svg" xmlns:xlink="http://www.w3.org/1999/xlink" x="0px" y="0px"
	 viewBox="-243 245 512 512" style="enable-background:new -243 245 512 512;" xml:space="preserve">
<style type="text/css">
	.st0{fill:#428FB2;}
</style>
<title></title>
<g id="_1">
	<path class="st0" d="M6.4,592.5c-27.3,0-53.8-17.7-74.5-49.9c-17.3-26.8-28.1-60.3-28.1-87.5c0-56.7,45.9-102.6,102.6-102.6
		S109,398.5,109,455.2c0,27.2-10.8,60.7-28.1,87.5C60.2,574.8,33.7,592.5,6.4,592.5z M6.4,382.6c-40.1,0-72.5,32.5-72.6,72.6
		c0,21.4,9.1,49.3,23.3,71.2c14.8,23,32.8,36.2,49.3,36.2s34.5-13.2,49.3-36.2C69.9,504.5,79,476.5,79,455.2
		C79,415.1,46.5,382.6,6.4,382.6L6.4,382.6z"/>
	<path class="st0" d="M-81.2,520.1c-35.9,0.4-65.3-28.3-65.7-64.1s28.3-65.3,64.1-65.7c0.5,0,1.1,0,1.6,0c6.2,0,12.4,0.9,18.4,2.6
		c8,2.2,12.6,10.5,10.4,18.5s-10.5,12.6-18.5,10.4c-0.1,0-0.2-0.1-0.3-0.1c-3.3-1-6.6-1.4-10.1-1.5c-19.3-0.3-35.2,15-35.5,34.3
		s15,35.2,34.3,35.5c0.4,0,0.8,0,1.2,0c2.4,0,4.8-0.2,7.1-0.7c8.1-1.7,16.1,3.5,17.8,11.6s-3.5,16.1-11.6,17.8
		C-72.3,519.6-76.7,520.1-81.2,520.1z"/>
	<path class="st0" d="M143.9,476.6c-8.3,0-15-6.7-15-15l0,0C128.9,385.2,74,323,6.4,323s-122.5,62.2-122.5,138.6c0,8.3-6.7,15-15,15
		s-15-6.7-15-15c0-93,68.4-168.6,152.5-168.6s152.5,75.6,152.5,168.6C158.9,469.9,152.2,476.6,143.9,476.6z"/>
	<path class="st0" d="M94,520.1c-3.9,0-7.8-0.3-11.6-1H31.1c-8.3,0-15-6.7-15-15c0-8.3,6.7-15,15-15h52.8c1,0,2.1,0.1,3.1,0.3
		c2.3,0.5,4.7,0.7,7.1,0.7c19.3,0.3,35.2-15,35.5-34.3c0.3-19.3-15-35.2-34.3-35.5c-0.4,0-0.8,0-1.2,0c-3.4,0-6.8,0.5-10,1.4
		c-8,2.3-16.3-2.3-18.6-10.2c-2.3-8,2.3-16.3,10.2-18.6c6-1.7,12.2-2.6,18.4-2.6c35.9-0.4,65.3,28.3,65.7,64.1s-28.3,65.3-64.1,65.7
		C95.1,520.1,94.5,520.1,94,520.1z"/>
	<path class="st0" d="M140.7,695h-268.6c-7.5,0-13.9-5.6-14.9-13.1l-4.2-32.3c-3.9-29.5,11.6-58.1,38.4-71l67.5-32.7
		c7.4-3.8,16.4-0.8,20.2,6.5c3.8,7.4,0.8,16.4-6.5,20.2c-0.2,0.1-0.4,0.2-0.6,0.3l-67.5,32.6c-15.1,7.3-23.9,23.5-21.7,40.1
		l2.5,19.2h242.3l2.5-19.2c2.2-16.7-6.6-32.8-21.7-40.1L40.9,573c-7.6-3.2-11.2-12-7.9-19.7c3.2-7.6,12-11.2,19.7-7.9
		c0.4,0.2,0.9,0.4,1.3,0.6l67.5,32.6c26.8,12.9,42.2,41.5,38.4,71l-4.2,32.3C154.6,689.4,148.3,695,140.7,695z"/>
</g>
</svg>
