<?xml version="1.0" encoding="utf-8"?>
<!-- Generator: Adobe Illustrator 19.0.0, SVG Export Plug-In . SVG Version: 6.00 Build 0)  -->
<svg version="1.1" id="Layer_1" xmlns="http://www.w3.org/2000/svg" xmlns:xlink="http://www.w3.org/1999/xlink" x="0px" y="0px"
	 viewBox="-243 245 512 512" style="enable-background:new -243 245 512 512;" xml:space="preserve">
<style type="text/css">
	.st0{fill:none;stroke:#428FB2;stroke-width:30;stroke-linecap:round;stroke-linejoin:round;}
</style>
<title></title>
<g id="_1">
	<path class="st0" d="M-145.7,334h315.6c15.6,0,28.2,12.6,28.2,28.2v213.6c0,15.6-12.6,28.2-28.2,28.2h-315.6
		c-15.6,0-28.2-12.6-28.2-28.2V362.2C-173.9,346.6-161.2,334-145.7,334z"/>
	<line class="st0" x1="-121.9" y1="604" x2="-121.9" y2="638"/>
	<line class="st0" x1="146.1" y1="604" x2="146.1" y2="638"/>
	<circle class="st0" cx="12.1" cy="469" r="77.9"/>
	<circle class="st0" cx="12.1" cy="469" r="30.7"/>
	<line class="st0" x1="12.1" y1="391.1" x2="12.1" y2="438.3"/>
	<line class="st0" x1="12.1" y1="499.7" x2="12.1" y2="546.9"/>
	<line class="st0" x1="-55.3" y1="430.1" x2="-14.5" y2="453.6"/>
	<line class="st0" x1="38.8" y1="484.4" x2="79.6" y2="507.9"/>
	<line class="st0" x1="-55.3" y1="507.9" x2="-14.5" y2="484.4"/>
	<line class="st0" x1="38.8" y1="453.6" x2="79.6" y2="430.1"/>
</g>
</svg>
