<?xml version="1.0" encoding="utf-8"?>
<!-- Generator: Adobe Illustrator 19.0.0, SVG Export Plug-In . SVG Version: 6.00 Build 0)  -->
<svg version="1.1" id="Layer_1" xmlns="http://www.w3.org/2000/svg" xmlns:xlink="http://www.w3.org/1999/xlink" x="0px" y="0px"
	 viewBox="-243 245 512 512" style="enable-background:new -243 245 512 512;" xml:space="preserve">
<style type="text/css">
	.st0{fill:#428FB2;}
</style>
<title></title>
<g id="_1">
	<path class="st0" d="M14,695c-4.9,0-9.4-2.4-12.3-6.3l-183.2-259.1c-3.5-4.9-3.7-11.4-0.5-16.6l69.9-112.9
		c2.7-4.4,7.6-7.1,12.8-7.1h226.4c5.2,0,10.1,2.7,12.8,7.1L210,413c3.2,5.1,3,11.6-0.5,16.6L26.3,688.7C23.4,692.6,18.9,695,14,695z
		 M-151.2,420.3L14,654l165.2-233.7L118.9,323H-90.9L-151.2,420.3z"/>
	<path class="st0" d="M197.2,435.9h-366.4c-8.3,0-15-6.7-15-15s6.7-15,15-15h366.4c8.3,0,15,6.7,15,15S205.5,435.9,197.2,435.9
		L197.2,435.9z"/>
	<path class="st0" d="M-42.6,435.9c-5.7,0-10.8-3.2-13.4-8.3l-56.6-112.9c-3.7-7.4-0.6-16.4,6.8-20.1c7.4-3.6,16.2-0.7,20,6.6
		l43.2,86.1l43.2-86.1c3.8-7.4,12.8-10.3,20.2-6.5c7.3,3.7,10.3,12.6,6.6,20l-56.6,112.9C-31.7,432.7-36.9,435.9-42.6,435.9z"/>
	<path class="st0" d="M70.6,435.9c-5.7,0-10.9-3.2-13.4-8.3L0.6,314.7c-3.8-7.4-0.8-16.4,6.5-20.2c7.4-3.8,16.4-0.8,20.2,6.5
		c0,0.1,0.1,0.1,0.1,0.2l43.2,86.1l43.2-86.1c3.5-7.5,12.5-10.7,20-7.2c7.5,3.5,10.7,12.5,7.2,20c-0.1,0.2-0.2,0.5-0.3,0.7L84,427.6
		C81.5,432.7,76.3,435.9,70.6,435.9z"/>
	<path class="st0" d="M14,695c-7.1,0-13.2-4.9-14.7-11.8l-56.6-259.1c-1.8-8.1,3.4-16.1,11.4-17.9s16.1,3.4,17.9,11.4l42,192l42-192
		c1.6-8.1,9.5-13.4,17.6-11.8s13.4,9.5,11.8,17.6c0,0.2-0.1,0.4-0.1,0.6L28.6,683.2C27.1,690.1,21,695,14,695z"/>
</g>
</svg>
